<svg width="805" height="856" viewBox="0 0 805 856" fill="none" xmlns="http://www.w3.org/2000/svg">
<ellipse cx="402.5" cy="428" rx="402.5" ry="428" fill="#0E1639"/>
<path d="M788.5 429.5C788.5 652.17 615.361 832.5 402 832.5C188.639 832.5 15.5 652.17 15.5 429.5C15.5 206.83 188.639 26.5 402 26.5C615.361 26.5 788.5 206.83 788.5 429.5Z" fill="#8F1D1E" stroke="#A92824" stroke-width="5"/>
<path d="M780.5 402C780.5 609.355 610.396 777.5 400.5 777.5C190.604 777.5 20.5 609.355 20.5 402C20.5 194.645 190.604 26.5 400.5 26.5C610.396 26.5 780.5 194.645 780.5 402Z" fill="#DD6413" stroke="#F57919" stroke-width="5"/>
<path d="M748.5 367.5C748.5 555.779 592.522 708.5 400 708.5C207.478 708.5 51.5 555.779 51.5 367.5C51.5 179.222 207.478 26.5 400 26.5C592.522 26.5 748.5 179.222 748.5 367.5Z" fill="#FFC11D" stroke="#FED526" stroke-width="5"/>
<g clip-path="url(#clip0_1_332)">
<rect x="274.48" y="537.764" width="253.796" height="72.5131" fill="#EA7018"/>
<path d="M270.046 556.689C128.714 492.632 131.696 345.806 200.334 249.075C268.973 152.344 400.109 154.099 400.109 154.099C400.109 154.099 531.253 152.907 599.473 249.934C667.692 346.961 670.036 493.805 528.426 557.245" fill="white"/>
<path d="M270.046 556.689C128.714 492.632 131.696 345.806 200.334 249.075C268.973 152.344 400.109 154.099 400.109 154.099C400.109 154.099 531.253 152.907 599.473 249.934C667.692 346.961 670.036 493.805 528.426 557.245" stroke="#EA7018" stroke-width="17.7728" stroke-linecap="round" stroke-linejoin="round"/>
<path d="M270.046 556.689L268.85 586.83C268.85 586.83 265.677 614.741 310.1 613.981L399.107 614.175" fill="#EA7018"/>
<path d="M270.046 556.689L268.85 586.83C268.85 586.83 265.677 614.741 310.1 613.981L399.107 614.175" stroke="#EA7018" stroke-width="17.7728" stroke-linecap="round" stroke-linejoin="round"/>
<path d="M528.426 557.246L529.493 587.39C529.493 587.39 532.544 615.315 488.117 614.362L399.11 614.17" fill="#EA7018"/>
<path d="M528.426 557.246L529.493 587.39C529.493 587.39 532.544 615.315 488.117 614.362L399.11 614.17" stroke="#EA7018" stroke-width="17.7728" stroke-linecap="round" stroke-linejoin="round"/>
<path d="M428.57 514.227L400.041 514.165L371.511 514.104L385.829 489.427L400.147 464.751L414.359 489.488L428.57 514.227Z" fill="#8E1D1D" stroke="#5C0000" stroke-width="17.7728" stroke-linecap="round" stroke-linejoin="round"/>
<path d="M304.413 492.251C338.527 483.19 358.835 448.189 349.774 414.076C340.712 379.963 305.712 359.654 271.598 368.716C237.485 377.777 217.177 412.778 226.238 446.891C235.3 481.004 270.3 501.313 304.413 492.251Z" fill="#8E1D1D" stroke="#670000" stroke-width="17.7728" stroke-linecap="round" stroke-linejoin="round"/>
<path d="M341.661 340.486L373.253 372.998" stroke="#5C0000" stroke-width="17.7728" stroke-linecap="round" stroke-linejoin="round"/>
<path d="M527.256 492.734C561.369 483.673 581.678 448.672 572.616 414.559C563.555 380.446 528.554 360.137 494.441 369.199C460.328 378.26 440.019 413.26 449.081 447.374C458.142 481.487 493.142 501.796 527.256 492.734Z" fill="#8E1D1D" stroke="#5C0000" stroke-width="17.7728" stroke-linecap="round" stroke-linejoin="round"/>
<path d="M459.494 339.953L425.85 373.102" stroke="#5C0000" stroke-width="17.7728" stroke-linecap="round" stroke-linejoin="round"/>
</g>
<g clip-path="url(#clip1_1_332)">
<rect x="280.064" y="523.549" width="246.13" height="70.323" fill="#8F1E1F"/>
<path d="M275.765 541.902C138.701 479.78 141.593 337.389 208.158 243.579C274.724 149.77 401.899 151.472 401.899 151.472C401.899 151.472 529.082 150.316 595.242 244.413C661.401 338.509 663.673 480.918 526.341 542.442" fill="white"/>
<path d="M275.765 541.902C138.701 479.78 141.593 337.389 208.158 243.579C274.724 149.77 401.899 151.472 401.899 151.472C401.899 151.472 529.082 150.316 595.242 244.413C661.401 338.509 663.673 480.918 526.341 542.442" stroke="#8F1E1E" stroke-width="17.236" stroke-linecap="round" stroke-linejoin="round"/>
<path d="M275.765 541.902L274.604 571.133C274.604 571.133 271.527 598.202 314.609 597.464L400.927 597.652" fill="#8F1E1F"/>
<path d="M275.765 541.902L274.604 571.133C274.604 571.133 271.527 598.202 314.609 597.464L400.927 597.652" stroke="#932020" stroke-width="17.236" stroke-linecap="round" stroke-linejoin="round"/>
<path d="M526.341 542.442L527.375 571.677C527.375 571.677 530.334 598.758 487.249 597.834L400.931 597.647" fill="#8F1E1F"/>
<path d="M526.341 542.442L527.375 571.677C527.375 571.677 530.334 598.758 487.249 597.834L400.931 597.647" stroke="#901D1E" stroke-width="17.236" stroke-linecap="round" stroke-linejoin="round"/>
<path d="M429.5 500.723L401.833 500.663L374.164 500.603L388.05 476.672L401.936 452.741L415.718 476.731L429.5 500.723Z" fill="#8E1D1D" stroke="#5C0000" stroke-width="17.236" stroke-linecap="round" stroke-linejoin="round"/>
<path d="M309.094 479.411C342.177 470.623 361.872 436.68 353.084 403.597C344.296 370.514 310.353 350.819 277.27 359.607C244.187 368.394 224.492 402.338 233.28 435.421C242.067 468.504 276.011 488.199 309.094 479.411Z" fill="#8E1D1D" stroke="#670000" stroke-width="17.236" stroke-linecap="round" stroke-linejoin="round"/>
<path d="M345.216 332.23L375.855 363.759" stroke="#5C0000" stroke-width="17.236" stroke-linecap="round" stroke-linejoin="round"/>
<path d="M525.206 479.879C558.289 471.091 577.984 437.148 569.196 404.065C560.408 370.982 526.465 351.287 493.382 360.075C460.299 368.863 440.604 402.806 449.392 435.889C458.18 468.972 492.123 488.667 525.206 479.879Z" fill="#8E1D1D" stroke="#5C0000" stroke-width="17.236" stroke-linecap="round" stroke-linejoin="round"/>
<path d="M459.491 331.713L426.863 363.86" stroke="#5C0000" stroke-width="17.236" stroke-linecap="round" stroke-linejoin="round"/>
</g>
<g clip-path="url(#clip2_1_332)">
<rect x="284" y="509" width="238" height="68" fill="white"/>
<path d="M279.842 526.747C147.307 466.677 150.102 328.989 214.469 238.278C278.836 147.567 401.811 149.213 401.811 149.213C401.811 149.213 524.792 148.095 588.766 239.084C652.74 330.072 654.937 467.777 522.142 527.269" fill="white"/>
<path d="M279.842 526.747C147.307 466.677 150.102 328.989 214.469 238.278C278.836 147.567 401.811 149.213 401.811 149.213C401.811 149.213 524.792 148.095 588.766 239.084C652.74 330.072 654.937 467.777 522.142 527.269" stroke="#5C0000" stroke-width="16.6667" stroke-linecap="round" stroke-linejoin="round"/>
<path d="M279.842 526.747L278.72 555.012C278.72 555.012 275.744 581.186 317.403 580.473L400.87 580.655" fill="white"/>
<path d="M279.842 526.747L278.72 555.012C278.72 555.012 275.744 581.186 317.403 580.473L400.87 580.655" stroke="#5C0000" stroke-width="16.6667" stroke-linecap="round" stroke-linejoin="round"/>
<path d="M522.142 527.269L523.142 555.538C523.142 555.538 526.003 581.724 484.34 580.831L400.874 580.65" fill="white"/>
<path d="M522.142 527.269L523.142 555.538C523.142 555.538 526.003 581.724 484.34 580.831L400.874 580.65" stroke="#5C0000" stroke-width="16.6667" stroke-linecap="round" stroke-linejoin="round"/>
<path d="M428.5 486.928L401.746 486.869L374.992 486.812L388.419 463.671L401.846 440.531L415.173 463.728L428.5 486.928Z" fill="#8E1D1D" stroke="#5C0000" stroke-width="16.6667" stroke-linecap="round" stroke-linejoin="round"/>
<path d="M312.071 466.32C344.061 457.822 363.105 425 354.608 393.01C346.11 361.02 313.288 341.975 281.298 350.473C249.308 358.97 230.263 391.792 238.761 423.782C247.259 455.773 280.08 474.817 312.071 466.32Z" fill="#8E1D1D" stroke="#670000" stroke-width="16.6667" stroke-linecap="round" stroke-linejoin="round"/>
<path d="M347 324L376.626 354.488" stroke="#5C0000" stroke-width="16.6667" stroke-linecap="round" stroke-linejoin="round"/>
<path d="M521.044 466.773C553.034 458.275 572.079 425.453 563.581 393.463C555.083 361.473 522.262 342.428 490.271 350.926C458.281 359.423 439.236 392.245 447.734 424.235C456.232 456.226 489.054 475.27 521.044 466.773Z" fill="#8E1D1D" stroke="#5C0000" stroke-width="16.6667" stroke-linecap="round" stroke-linejoin="round"/>
<path d="M457.5 323.5L425.949 354.586" stroke="#5C0000" stroke-width="16.6667" stroke-linecap="round" stroke-linejoin="round"/>
</g>
<defs>
<clipPath id="clip0_1_332">
<rect width="600.069" height="600.069" fill="white" transform="translate(34.5469 179.962) rotate(-14.876)"/>
</clipPath>
<clipPath id="clip1_1_332">
<rect width="581.945" height="581.945" fill="white" transform="translate(47.3779 176.554) rotate(-14.876)"/>
</clipPath>
<clipPath id="clip2_1_332">
<rect width="562.722" height="562.722" fill="white" transform="translate(59 173.467) rotate(-14.876)"/>
</clipPath>
</defs>
</svg>
